# xmcd CD database file
#
# Track frame offsets:
#	150
#	20274
#	36240
#	60402
#	79563
#	105860
#	118410
#	142566
#	158451
#	181528
#	198487
#	216069
#	239463
#
# Disc length: 3454 seconds
#
# Revision: 0
# Processed by: cddbd v1.5.1PL0 Copyright (c) Steve Scherf et al.
# Submitted via: CDex 1.51
#
DISCID=950d7c0d
DTITLE=Wendy lee Taylor - Lets Do it 
DYEAR=2005
DGENRE=Jazz
TTITLE0=Let's do It 
TTITLE1=Smile
TTITLE2=East of the Sun
TTITLE3=Gentleman Friend
TTITLE4=Est ce l'Amour
TTITLE5=Almost like Being in Love 
TTITLE6=Deshabillez-moi
TTITLE7=Love is Here to stay
TTITLE8=Que reste t'il de nos Amours
TTITLE9=I'M A Fool to Want You
TTITLE10=Surrey With a Fringe on Top
TTITLE11=I'm Through with Love
TTITLE12=Sous le ciel de Paris 
EXTD=YEAR: 2005
EXTT0=
EXTT1=
EXTT2=
EXTT3=
EXTT4=
EXTT5=
EXTT6=
EXTT7=
EXTT8=
EXTT9=
EXTT10=
EXTT11=
EXTT12=
PLAYORDER=
